<svg width="60" height="51" viewBox="0 0 60 51" fill="none" xmlns="http://www.w3.org/2000/svg">
<mask id="mask0_31_575" style="mask-type:alpha" maskUnits="userSpaceOnUse" x="0" y="1" width="60" height="45">
<rect x="2.07318" y="4.02439" width="56.0976" height="39.5122" stroke="black" stroke-width="0.243902" stroke-dasharray="0.49 0.49"/>
<path d="M5.00759 24.1944H10.3811L14.4512 30.9398L17.6524 25.452V33.0892L14.0053 39.3658L5.00759 24.1944ZM18.3956 39.3658V24.1944H23.4489V39.3658H18.3956ZM4.99616 39.3658V25.6006L9.71796 33.5236V39.3658H4.99616ZM30.639 33.1349V39.3658H25.5857V24.1944H30.639V30.2081H35.4752V33.1349H30.639ZM31.4393 27.1326V24.1944H39.3395V28.5846H34.5834V27.1326H31.4393ZM31.4393 39.3658V36.3361H34.2861V34.8155H39.3395V39.3658H31.4393Z" fill="black"/>
<path d="M5.00765 24.1944H10.3811L14.4513 30.9398L17.6525 25.452V33.0892L14.0054 39.3658L5.00765 24.1944ZM18.3956 39.3658V24.1944H23.449V39.3658H18.3956ZM4.99622 39.3658V25.6006L9.71802 33.5236V39.3658H4.99622ZM30.6391 33.1349V39.3658H25.5857V24.1944H30.6391V30.2081H35.4752V33.1349H30.6391ZM31.4394 27.1326V24.1944H39.3395V28.5846H34.5834V27.1326H31.4394ZM31.4394 39.3658V36.3361H34.2862V34.8155H39.3395V39.3658H31.4394Z" fill="black"/>
<path d="M5.0451 21V8.04102H9.36151V21H5.0451ZM10.0451 10.6289V8.04102H14.9767L17.5744 10.6289V14.5156L15.5822 16.5078L15.4455 16.2344L11.3928 16.7715L11.549 17.1133H10.0451V14.6035H13.2873V10.6289H10.0451ZM18.0139 21H13.4045L11.549 17.1133H14.9767L15.5822 16.5078L18.0139 21ZM23.1984 21H21.4699L18.882 18.4121V13.2168L21.4699 10.6289H23.1984V21ZM23.882 16.8398V15.0332H26.1574V13.2168H23.882V10.6289H27.5441L30.132 13.2168V16.8398H23.882ZM23.882 21V18.5781H29.6828V19.7012L28.3937 21H23.882ZM38.3536 21V13.2168H32.211V11.9277L33.5099 10.6289H39.9845L42.5724 13.2168V21H38.3536ZM37.67 14.9648V16.7617H35.4435V18.5781H37.67V19.7207L36.381 21H33.0802L31.3419 19.291V16.6934L33.0802 14.9648H37.67ZM55.3741 6.67383V21H51.0577V6.67383H55.3741ZM48.294 18.5781H50.3741V19.9746L49.3487 21H46.3116L43.9776 18.666V12.9629L46.3116 10.6289H50.3741V13.2168H48.294V18.5781Z" fill="black"/>
<rect x="56.4634" y="2.07318" width="3.41463" height="3.41463" rx="0.365854" stroke="black" stroke-width="0.243902"/>
<rect x="56.4634" y="41.8293" width="3.41463" height="3.41463" rx="0.365854" stroke="black" stroke-width="0.243902"/>
<rect x="0.121951" y="2.07318" width="3.41463" height="3.41463" rx="0.365854" stroke="black" stroke-width="0.243902"/>
<rect x="0.121951" y="41.8293" width="3.41463" height="3.41463" rx="0.365854" stroke="black" stroke-width="0.243902"/>
<rect x="45.6098" y="24.8781" width="4.87805" height="10" fill="black"/>
<path fill-rule="evenodd" clip-rule="evenodd" d="M45.9194 38.5366L48.0489 40.9756L50.1783 38.5366H45.9194ZM45.3871 37.9268H50.7106L54.5968 33.4756H41.5009L45.3871 37.9268Z" fill="black"/>
<rect x="41.4634" y="24.8781" width="3.41463" height="8.04878" fill="black"/>
<rect x="51.2195" y="24.8781" width="3.41463" height="8.04878" fill="black"/>
</mask>
<g mask="url(#mask0_31_575)">
<rect x="-1.70734" width="66.5854" height="50.4878" fill="#00FEEF"/>
</g>
</svg>
