<svg width="65" height="49" viewBox="0 0 65 49" fill="none" xmlns="http://www.w3.org/2000/svg">
<mask id="mask0_63_44" style="mask-type:alpha" maskUnits="userSpaceOnUse" x="0" y="0" width="65" height="48">
<rect x="2.11383" y="2.11383" width="61.0366" height="43.0691" stroke="black" stroke-width="0.792683" stroke-dasharray="1.59 1.59"/>
<path d="M5.2163 20.9634V6.7533H9.94943V20.9634H5.2163ZM10.699 9.59104V6.7533H16.1068L18.9552 9.59104V13.853L16.7707 16.0375L16.6208 15.7377L12.1768 16.3267L12.3481 16.7014H10.699V13.9494H14.2542V9.59104H10.699ZM19.4371 20.9634H14.3827L12.3481 16.7014H16.1068L16.7707 16.0375L19.4371 20.9634ZM25.1222 20.9634H23.2268L20.389 18.1257V12.4288L23.2268 9.59104H25.1222V20.9634ZM25.8718 16.4016V14.4206H28.3668V12.4288H25.8718V9.59104H29.8874L32.7252 12.4288V16.4016H25.8718ZM25.8718 20.9634V18.3077H32.2326V19.5392L30.8191 20.9634H25.8718ZM41.7406 20.9634V12.4288H35.005V11.0153L36.4292 9.59104H43.5289L46.3666 12.4288V20.9634H41.7406ZM40.991 14.3456V16.3159H38.5495V18.3077H40.991V19.5606L39.5775 20.9634H35.958L34.0519 19.0894V16.241L35.958 14.3456H40.991ZM60.4043 5.25412V20.9634H55.6711V5.25412H60.4043ZM52.6407 18.3077H54.9216V19.839L53.7972 20.9634H50.4668L47.9075 18.4041V12.1504L50.4668 9.59104H54.9216V12.4288H52.6407V18.3077Z" fill="black"/>
<rect x="61.3008" y="0.264228" width="3.43496" height="3.43496" rx="0.264228" stroke="black" stroke-width="0.528455"/>
<rect x="61.3008" y="43.3333" width="3.43496" height="3.43496" rx="0.264228" stroke="black" stroke-width="0.528455"/>
<rect x="0.264228" y="0.264228" width="3.43496" height="3.43496" rx="0.264228" stroke="black" stroke-width="0.528455"/>
<rect x="0.264228" y="43.3333" width="3.43496" height="3.43496" rx="0.264228" stroke="black" stroke-width="0.528455"/>
<path d="M5.25204 24.6752H11.4371L16.122 32.4395L19.8068 26.1228V34.9135L15.6088 42.1382L5.25204 24.6752ZM20.6621 42.1382V24.6752H26.4788V42.1382H20.6621ZM5.23888 42.1382V26.2938L10.6739 35.4136V42.1382H5.23888ZM34.7549 34.9661V42.1382H28.9383V24.6752H34.7549V31.5972H40.3215V34.9661H34.7549ZM35.6761 28.0573V24.6752H44.7695V29.7285H39.295V28.0573H35.6761ZM35.6761 42.1382V38.6509H38.9529V36.9006H44.7695V42.1382H35.6761Z" fill="black"/>
<rect x="50.4675" y="24.8374" width="5.28455" height="10.8333" fill="black"/>
<path fill-rule="evenodd" clip-rule="evenodd" d="M50.803 39.6342L53.1098 42.2765L55.4167 39.6342H50.803ZM50.2262 38.9736H55.9934L60.2035 34.1515H46.0162L50.2262 38.9736Z" fill="black"/>
<rect x="45.9756" y="24.8374" width="3.69919" height="8.71951" fill="black"/>
<rect x="56.5448" y="24.8374" width="3.69919" height="8.71951" fill="black"/>
</mask>
<g mask="url(#mask0_63_44)">
<rect x="-7.13416" y="-6.07724" width="79.2683" height="59.187" fill="#00FEA3"/>
</g>
</svg>
