<svg width="20" height="20" viewBox="0 0 20 20" fill="none" xmlns="http://www.w3.org/2000/svg">
<g clip-path="url(#clip0_39_31)">
<path d="M12.5 4.83325V15.6416L8.99167 14.1333L8.33333 13.8499L7.675 14.1333L4.16667 15.6416V4.83325H12.5ZM15.8333 -0.166748H7.49167C6.575 -0.166748 5.83333 0.583252 5.83333 1.49992H14.1667C15.0833 1.49992 15.8333 2.24992 15.8333 3.16659V13.9999L17.5 14.8333V1.49992C17.5 0.583252 16.75 -0.166748 15.8333 -0.166748ZM12.5 3.16659H4.16667C3.25 3.16659 2.5 3.91659 2.5 4.83325V18.1666L8.33333 15.6666L14.1667 18.1666V4.83325C14.1667 3.91659 13.4167 3.16659 12.5 3.16659Z" fill="#EEEEEE" fill-opacity="0.933333"/>
</g>
<defs>
<clipPath id="clip0_39_31">
<rect width="20" height="20" fill="white"/>
</clipPath>
</defs>
</svg>
