<svg width="26" height="26" viewBox="0 0 26 26" fill="none" xmlns="http://www.w3.org/2000/svg">
<g clip-path="url(#clip0_137_20)">
<path d="M19.4997 8.66665H18.4163V6.49998C18.4163 3.50998 15.9897 1.08331 12.9997 1.08331C10.0097 1.08331 7.58301 3.50998 7.58301 6.49998H9.74967C9.74967 4.70165 11.2013 3.24998 12.9997 3.24998C14.798 3.24998 16.2497 4.70165 16.2497 6.49998V8.66665H6.49967C5.30801 8.66665 4.33301 9.64165 4.33301 10.8333V21.6666C4.33301 22.8583 5.30801 23.8333 6.49967 23.8333H19.4997C20.6913 23.8333 21.6663 22.8583 21.6663 21.6666V10.8333C21.6663 9.64165 20.6913 8.66665 19.4997 8.66665ZM19.4997 21.6666H6.49967V10.8333H19.4997V21.6666ZM12.9997 18.4166C14.1913 18.4166 15.1663 17.4416 15.1663 16.25C15.1663 15.0583 14.1913 14.0833 12.9997 14.0833C11.808 14.0833 10.833 15.0583 10.833 16.25C10.833 17.4416 11.808 18.4166 12.9997 18.4166Z" fill="#00FEA3"/>
</g>
<defs>
<clipPath id="clip0_137_20">
<rect width="26" height="26" fill="white"/>
</clipPath>
</defs>
</svg>
